<svg width="24" height="24" viewBox="0 0 24 24" fill="none" xmlns="http://www.w3.org/2000/svg">
<path d="M23.8344 11.6994L22.8271 11.0758C22.8187 10.9778 22.8093 10.8799 22.7988 10.7822L23.6644 9.97526C23.7071 9.93474 23.7388 9.88406 23.7566 9.82795C23.7744 9.77185 23.7777 9.71214 23.7662 9.65441C23.7547 9.59669 23.7287 9.54282 23.6907 9.49786C23.6527 9.45289 23.604 9.41828 23.549 9.39726L22.4424 8.98326C22.4151 8.88756 22.3861 8.79234 22.3554 8.69766L23.0458 7.73896C23.0804 7.69106 23.1022 7.6351 23.1091 7.5764C23.1159 7.51771 23.1076 7.45823 23.085 7.40364C23.0624 7.34904 23.0262 7.30115 22.9798 7.26452C22.9334 7.22788 22.8784 7.20373 22.8201 7.19436L21.6538 7.00496C21.6083 6.91682 21.5614 6.82941 21.5131 6.74276L22.0031 5.66666C22.0278 5.61301 22.0382 5.55389 22.0334 5.49502C22.0286 5.43615 22.0088 5.37951 21.9757 5.33056C21.9427 5.28152 21.8979 5.24166 21.8453 5.21473C21.7927 5.18779 21.7341 5.17465 21.6751 5.17656L20.4906 5.21816C20.4298 5.14121 20.3674 5.06559 20.3033 4.99136L20.5756 3.83836C20.589 3.78086 20.5876 3.72089 20.5714 3.6641C20.5552 3.60731 20.5248 3.55559 20.4831 3.51382C20.4413 3.47206 20.3896 3.44163 20.3329 3.42542C20.2761 3.4092 20.2161 3.40774 20.1586 3.42116L19.0054 3.69356C18.9301 3.63033 18.8542 3.56789 18.7776 3.50626L18.8191 2.32176C18.8219 2.2625 18.8094 2.20351 18.7827 2.15052C18.756 2.09753 18.7161 2.05235 18.6668 2.01934C18.6174 1.98634 18.5605 1.96664 18.5013 1.96216C18.4421 1.95767 18.3828 1.96856 18.3291 1.99376L17.2531 2.48476C17.1659 2.43716 17.0789 2.38956 16.9908 2.34406L16.8005 1.17676C16.7906 1.1187 16.7661 1.0641 16.7294 1.01806C16.6927 0.972015 16.6449 0.93604 16.5905 0.913494C16.5361 0.890948 16.4768 0.882569 16.4183 0.889139C16.3598 0.895709 16.3039 0.917014 16.2558 0.951061L15.2961 1.64156C15.2014 1.61123 15.1063 1.58255 15.0106 1.55556L14.5966 0.448961C14.5756 0.393956 14.541 0.345175 14.496 0.307175C14.451 0.269176 14.3971 0.243199 14.3394 0.231673C14.2817 0.220147 14.2219 0.223447 14.1658 0.241265C14.1097 0.259083 14.059 0.290838 14.0185 0.333561L13.2116 1.20016C13.1139 1.18914 13.016 1.17967 12.918 1.17176L12.2944 0.164361C12.2634 0.114116 12.22 0.072638 12.1685 0.0438699C12.1169 0.0151019 12.0588 0 11.9998 0C11.9408 0 11.8827 0.0151019 11.8311 0.0438699C11.7796 0.072638 11.7362 0.114116 11.7052 0.164361L11.0816 1.17166C10.9836 1.18008 10.8858 1.18954 10.788 1.20006L9.9801 0.333461C9.93985 0.290213 9.8892 0.257985 9.83298 0.239843C9.77675 0.221701 9.71682 0.218249 9.65889 0.229816C9.60095 0.241383 9.54694 0.267584 9.50199 0.305926C9.45704 0.344267 9.42265 0.393473 9.4021 0.448861L8.988 1.55536C8.8918 1.58276 8.7977 1.61206 8.7025 1.64136L7.7438 0.951061C7.69573 0.917013 7.63982 0.89571 7.58128 0.889145C7.52275 0.882581 7.4635 0.890969 7.40909 0.913526C7.35467 0.936082 7.30687 0.97207 7.27015 1.01812C7.23342 1.06418 7.20898 1.11879 7.1991 1.17686L7.0088 2.34406C6.92066 2.38957 6.83325 2.43647 6.7466 2.48476L5.6704 1.99376C5.61664 1.96916 5.55748 1.95874 5.49855 1.96349C5.43963 1.96823 5.3829 1.98799 5.33377 2.02087C5.28464 2.05376 5.24475 2.09868 5.21791 2.15135C5.19106 2.20402 5.17815 2.26269 5.1804 2.32176L5.222 3.50626C5.14492 3.56729 5.06897 3.62973 4.9942 3.69356L3.8411 3.42106C3.7836 3.40762 3.72362 3.40907 3.66684 3.42527C3.61005 3.44147 3.55834 3.47189 3.51658 3.51364C3.47483 3.5554 3.44441 3.60711 3.42821 3.6639C3.41201 3.72068 3.41056 3.78066 3.424 3.83816L3.6953 4.99126C3.6325 5.06626 3.5698 5.14216 3.509 5.21806L2.3245 5.17656C2.26542 5.17431 2.20676 5.18722 2.15409 5.21407C2.10141 5.24092 2.0565 5.2808 2.02361 5.32993C1.99073 5.37906 1.97097 5.43579 1.96622 5.49472C1.96148 5.55364 1.9719 5.6128 1.9965 5.66656L2.4875 6.74266C2.43918 6.82929 2.39228 6.91671 2.3468 7.00486L1.1806 7.19426C1.12255 7.20415 1.06795 7.22859 1.02191 7.26531C0.975868 7.30203 0.939889 7.34982 0.917335 7.40422C0.89478 7.45862 0.886387 7.51784 0.892938 7.57637C0.89949 7.63489 0.920773 7.6908 0.954799 7.73886L1.6452 8.69756C1.61513 8.7924 1.58613 8.88757 1.5582 8.98306L0.451699 9.39706C0.396686 9.41806 0.347894 9.45266 0.309885 9.49763C0.271875 9.54261 0.245887 9.59648 0.23435 9.65422C0.222814 9.71197 0.226105 9.77169 0.243916 9.82782C0.261728 9.88394 0.293477 9.93464 0.336199 9.97516L1.2018 10.7822C1.19081 10.8798 1.18138 10.9777 1.1735 11.0757L0.166199 11.6993C0.11548 11.7299 0.0735319 11.7731 0.0444153 11.8247C0.0152988 11.8763 0 11.9346 0 11.9939C0 12.0531 0.0152988 12.1114 0.0444153 12.163C0.0735319 12.2146 0.11548 12.2578 0.166199 12.2885L1.1735 12.9121C1.1815 13.0103 1.1917 13.1085 1.2018 13.2057L0.336199 14.0136C0.292953 14.0538 0.260729 14.1045 0.242594 14.1607C0.224459 14.2169 0.221016 14.2769 0.232593 14.3348C0.244171 14.3927 0.270383 14.4468 0.308735 14.4917C0.347087 14.5366 0.396303 14.571 0.451699 14.5916L1.5582 15.0057C1.5855 15.1019 1.6149 15.1971 1.6452 15.2912L0.954799 16.2499C0.919857 16.2978 0.89784 16.3538 0.890868 16.4127C0.883897 16.4716 0.892205 16.5313 0.914994 16.586C0.937783 16.6407 0.974284 16.6887 1.02098 16.7252C1.06767 16.7617 1.12299 16.7856 1.1816 16.7946L2.3478 16.9839C2.3934 17.0719 2.44 17.159 2.4886 17.2461L1.9976 18.3223C1.973 18.376 1.96258 18.4352 1.96732 18.4941C1.97207 18.553 1.99183 18.6098 2.02471 18.6589C2.0576 18.708 2.10251 18.7479 2.15519 18.7748C2.20786 18.8016 2.26652 18.8145 2.3256 18.8123L3.509 18.7708C3.5708 18.8477 3.6325 18.9236 3.6963 18.9985L3.425 20.1526C3.41148 20.21 3.41288 20.27 3.42906 20.3268C3.44525 20.3836 3.47569 20.4353 3.51749 20.4769C3.55929 20.5186 3.61105 20.549 3.66787 20.565C3.72468 20.5811 3.78466 20.5823 3.8421 20.5687L4.9951 20.2974C5.0701 20.3612 5.1461 20.4229 5.223 20.4837L5.1815 21.6682C5.17885 21.7273 5.19153 21.7862 5.2183 21.8391C5.24506 21.8919 5.28502 21.9369 5.33429 21.9698C5.38357 22.0027 5.4405 22.0223 5.49957 22.0268C5.55864 22.0312 5.61786 22.0203 5.6715 21.9952L6.7476 21.5052C6.8346 21.5538 6.9217 21.6003 7.0098 21.6459L7.2001 22.8121C7.20984 22.8702 7.23418 22.9249 7.27084 22.9711C7.30751 23.0173 7.3553 23.0534 7.40973 23.0761C7.46417 23.0987 7.52347 23.1072 7.58207 23.1007C7.64067 23.0942 7.69667 23.0729 7.7448 23.0389L8.7035 22.3485C8.79819 22.379 8.89337 22.408 8.989 22.4355L9.403 23.5421C9.42332 23.5977 9.4576 23.6471 9.50255 23.6856C9.54749 23.7242 9.60159 23.7505 9.65965 23.7621C9.7177 23.7737 9.77776 23.7701 9.83406 23.7518C9.89035 23.7335 9.94099 23.701 9.9811 23.6575L10.789 22.7919C10.8862 22.803 10.9844 22.8122 11.0826 22.8213L11.7062 23.8286C11.7374 23.8786 11.7808 23.9198 11.8323 23.9484C11.8839 23.977 11.9419 23.992 12.0008 23.992C12.0597 23.992 12.1177 23.977 12.1693 23.9484C12.2208 23.9198 12.2642 23.8786 12.2954 23.8286L12.919 22.8213C13.0172 22.8122 13.1154 22.803 13.2126 22.7919L14.0195 23.6575C14.06 23.7002 14.1107 23.7319 14.1668 23.7497C14.2229 23.7675 14.2826 23.7708 14.3403 23.7593C14.3981 23.7477 14.4519 23.7218 14.4969 23.6838C14.5419 23.6458 14.5765 23.597 14.5975 23.5421L15.0116 22.4355C15.1073 22.4081 15.2025 22.3791 15.2971 22.3485L16.2558 23.0389C16.3037 23.0738 16.3598 23.0958 16.4187 23.1028C16.4775 23.1098 16.5372 23.1015 16.5919 23.0787C16.6467 23.0559 16.6946 23.0194 16.7311 22.9727C16.7677 22.926 16.7916 22.8707 16.8005 22.8121L16.9908 21.6459C17.0788 21.6003 17.1659 21.5528 17.253 21.5052L18.3292 21.9952C18.3829 22.0194 18.4419 22.0296 18.5006 22.0248C18.5593 22.02 18.6159 22.0003 18.6649 21.9676C18.7139 21.9348 18.7538 21.8902 18.7808 21.8378C18.8078 21.7854 18.821 21.7271 18.8192 21.6682L18.7777 20.4837C18.8546 20.4232 18.9302 20.3611 19.0044 20.2974L20.1575 20.5687C20.2149 20.582 20.2747 20.5806 20.3314 20.5644C20.3881 20.5483 20.4397 20.518 20.4814 20.4763C20.5231 20.4347 20.5536 20.3832 20.5699 20.3266C20.5862 20.2699 20.5878 20.2101 20.5746 20.1527L20.3033 18.9985C20.3661 18.9236 20.4288 18.8477 20.4896 18.7707L21.6741 18.8122C21.7334 18.815 21.7923 18.8024 21.8453 18.7758C21.8983 18.7491 21.9435 18.7091 21.9765 18.6598C22.0095 18.6105 22.0292 18.5535 22.0337 18.4944C22.0382 18.4352 22.0273 18.3759 22.0021 18.3222L21.5121 17.2462C21.5596 17.159 21.6072 17.072 21.6528 16.9839L22.819 16.7946C22.8771 16.7847 22.9317 16.7602 22.9777 16.7235C23.0238 16.6868 23.0598 16.639 23.0823 16.5846C23.1049 16.5302 23.1133 16.4709 23.1067 16.4124C23.1001 16.3538 23.0788 16.2979 23.0448 16.2499L22.3544 15.2912L22.4414 15.0057L23.548 14.5917C23.6034 14.5711 23.6526 14.5367 23.691 14.4918C23.7293 14.4468 23.7556 14.3928 23.7671 14.3348C23.7787 14.2769 23.7752 14.2169 23.7571 14.1607C23.7389 14.1045 23.7067 14.0538 23.6634 14.0136L22.7978 13.2057C22.8079 13.1085 22.818 13.0103 22.8261 12.9121L23.8334 12.2885C23.8841 12.2578 23.9261 12.2146 23.9552 12.163C23.9843 12.1114 23.9996 12.0531 23.9996 11.9939C23.9996 11.9346 23.9843 11.8763 23.9552 11.8247C23.9261 11.7731 23.8841 11.7299 23.8334 11.6993L23.8344 11.6994ZM17.0931 20.0545C16.9089 20.014 16.7482 19.9022 16.6461 19.7436C16.544 19.585 16.5088 19.3924 16.5483 19.208C16.5877 19.0235 16.6986 18.8622 16.8566 18.7592C17.0147 18.6563 17.207 18.62 17.3917 18.6585C17.4846 18.6768 17.573 18.7135 17.6516 18.7664C17.7303 18.8192 17.7976 18.8872 17.8497 18.9664C17.9018 19.0455 17.9376 19.1342 17.9551 19.2274C17.9725 19.3205 17.9713 19.4161 17.9514 19.5088C17.9315 19.6014 17.8934 19.6892 17.8392 19.7669C17.7851 19.8447 17.716 19.9109 17.636 19.9617C17.556 20.0125 17.4667 20.0468 17.3733 20.0628C17.2799 20.0787 17.1843 20.0759 17.092 20.0545H17.0931ZM16.7509 17.7403C16.6674 17.7223 16.5812 17.721 16.4972 17.7364C16.4132 17.7518 16.333 17.7836 16.2614 17.8301C16.1897 17.8766 16.1279 17.9367 16.0795 18.0071C16.0311 18.0775 15.9971 18.1567 15.9794 18.2403L15.6221 19.9088C14.5186 20.4098 13.2936 20.6883 12.0028 20.6883C10.7264 20.6901 9.46515 20.4122 8.3077 19.8743L7.9503 18.2059C7.93261 18.1223 7.89859 18.0431 7.8502 17.9728C7.80181 17.9025 7.74 17.8424 7.66831 17.796C7.59663 17.7497 7.51649 17.7179 7.4325 17.7026C7.34851 17.6873 7.26233 17.6888 7.1789 17.7069L5.7059 18.0227C5.4322 17.7408 5.17785 17.4408 4.9446 17.1247H12.1122C12.1932 17.1247 12.2478 17.1106 12.2478 17.0367V14.5007C12.2478 14.4267 12.1942 14.4126 12.1122 14.4126H10.0156V12.8049H12.2833C12.4898 12.8049 13.3898 12.8636 13.6773 14.0137C13.7674 14.367 13.9648 15.5181 14.1005 15.8866C14.2351 16.2996 14.7838 17.1247 15.369 17.1247H18.9406C18.9841 17.1241 19.0275 17.1197 19.0702 17.1116C18.8226 17.448 18.5512 17.7663 18.2583 18.0642L16.7509 17.7403ZM6.8367 20.0201C6.7444 20.0415 6.64876 20.0443 6.55536 20.0284C6.46196 20.0124 6.37267 19.9781 6.29268 19.9273C6.21269 19.8765 6.14362 19.8103 6.08947 19.7325C6.03533 19.6548 5.9972 19.567 5.97731 19.4744C5.95742 19.3818 5.95617 19.2861 5.97363 19.193C5.99109 19.0998 6.02691 19.0111 6.079 18.932C6.13109 18.8528 6.19842 18.7848 6.27705 18.732C6.35568 18.6791 6.44405 18.6424 6.537 18.6241C6.72078 18.5877 6.91148 18.6251 7.06796 18.7281C7.22444 18.8311 7.33418 18.9915 7.3735 19.1746C7.41282 19.3578 7.37858 19.5491 7.27816 19.7072C7.17775 19.8654 7.01919 19.9777 6.8367 20.0201ZM4.1175 8.99326C4.15875 9.07935 4.1823 9.17284 4.18678 9.26819C4.19125 9.36354 4.17655 9.45883 4.14355 9.5484C4.11054 9.63797 4.05991 9.72001 3.99463 9.78966C3.92936 9.85932 3.85077 9.91517 3.76353 9.95391C3.67629 9.99266 3.58216 10.0135 3.48672 10.0152C3.39127 10.0169 3.29646 9.9995 3.20788 9.96392C3.11929 9.92835 3.03875 9.87536 2.97101 9.80811C2.90327 9.74085 2.84971 9.66069 2.8135 9.57236C2.74328 9.40056 2.74274 9.20816 2.812 9.03597C2.88127 8.86379 3.01488 8.72535 3.18451 8.65003C3.35414 8.57471 3.54644 8.56844 3.72061 8.63253C3.89479 8.69663 4.03715 8.82596 4.1175 8.99326ZM3.2823 10.9746L4.817 10.2922C4.89507 10.2575 4.96554 10.2078 5.02438 10.1459C5.08323 10.0839 5.12929 10.011 5.15994 9.93131C5.19059 9.85158 5.20522 9.76659 5.203 9.6812C5.20078 9.59581 5.18175 9.51169 5.147 9.43366L4.8312 8.71896H6.0744V14.3215H3.5667C3.25747 13.2341 3.16124 12.0973 3.2833 10.9735L3.2823 10.9746ZM10.0166 10.4309V8.77966H12.9767C13.1297 8.77966 14.0559 8.95686 14.0559 9.64936C14.0559 10.2244 13.3452 10.4309 12.7611 10.4309H10.0166ZM20.774 11.9171C20.774 12.1358 20.766 12.3534 20.7497 12.5681H19.8497C19.7597 12.5681 19.7232 12.6267 19.7232 12.7158V13.1288C19.7232 14.1018 19.1745 14.3134 18.6936 14.367C18.236 14.4187 17.7288 14.1757 17.6661 13.8953C17.3957 12.3767 16.9463 12.0517 16.2356 11.4919C17.1173 10.932 18.0346 10.1059 18.0346 9.00036C18.0346 7.80676 17.2156 7.05456 16.6577 6.68506C15.8752 6.16876 15.0086 6.06556 14.7747 6.06556H5.468C6.75421 4.62734 8.47905 3.65371 10.375 3.29566L11.4724 4.44666C11.5312 4.50852 11.6016 4.55816 11.6796 4.59272C11.7577 4.62728 11.8418 4.6461 11.9271 4.64808C12.0124 4.65005 12.0973 4.63516 12.1768 4.60425C12.2563 4.57334 12.329 4.52703 12.3906 4.46796L13.6176 3.29366C14.8687 3.5283 16.0537 4.0323 17.0906 4.77071C18.1274 5.50912 18.9912 6.46426 19.622 7.56986L18.7817 9.46806C18.7121 9.62572 18.7077 9.80454 18.7695 9.96541C18.8314 10.1263 18.9544 10.2561 19.1117 10.3266L20.7295 11.0454C20.7578 11.3329 20.772 11.6224 20.772 11.9171H20.774ZM11.4734 2.31776C11.6102 2.18727 11.7932 2.11648 11.9822 2.12094C12.0758 2.12315 12.168 2.14377 12.2537 2.18162C12.3393 2.21948 12.4166 2.27383 12.4812 2.34156C12.5458 2.4093 12.5964 2.4891 12.6302 2.5764C12.664 2.66371 12.6802 2.75681 12.678 2.85039C12.6758 2.94397 12.6552 3.0362 12.6173 3.12182C12.5795 3.20743 12.5251 3.28475 12.4574 3.34936C12.3188 3.46905 12.1394 3.53085 11.9565 3.52198C11.7735 3.51312 11.601 3.43426 11.4746 3.30173C11.3482 3.16919 11.2775 2.99314 11.2773 2.80998C11.2771 2.62683 11.3473 2.4506 11.4734 2.31776ZM19.8123 9.02776C19.85 8.94215 19.9043 8.86484 19.972 8.80025C20.0397 8.73567 20.1195 8.68509 20.2068 8.65141C20.2941 8.61773 20.3871 8.60161 20.4807 8.60399C20.5742 8.60637 20.6663 8.62719 20.7518 8.66526C20.881 8.72227 20.9904 8.81633 21.0661 8.93553C21.1418 9.05474 21.1805 9.19372 21.1772 9.3349C21.1739 9.47608 21.1288 9.61311 21.0476 9.72864C20.9663 9.84417 20.8527 9.93301 20.721 9.98392C20.5892 10.0348 20.4454 10.0455 20.3076 10.0146C20.1698 9.98375 20.0442 9.91268 19.9468 9.81042C19.8495 9.70815 19.7846 9.5793 19.7605 9.44016C19.7363 9.30102 19.754 9.15784 19.8113 9.02876L19.8123 9.02776Z" fill="#F74C01"/>
</svg>
